# xmcd
#
# Track frame offsets: 
#        150
#        3769
#        20105
#        41937
#        69125
#        76671
#        97801
#        118453
#        133481
#        146258
#        168193
#        190079
#        214667
#        221073
#        234577
#        250252
#        260722
#        277861
#
# Disc length: 3826 seconds
#
# Revision: 0
# Processed by: cddbd v1.5.2PL0 Copyright (c) Steve Scherf et al.
# Submitted via: ExactAudioCopy v1.3
#
DISCID=fe0ef012
DTITLE=Spo-Dee-O-Dee - Ain't Got No Money
DYEAR=2002
DGENRE=Blues
TTITLE0=No Money Down
TTITLE1=Hoochie-Coochie Coo
TTITLE2=New York Town Blues
TTITLE3=You're The One
TTITLE4=Sweet Life
TTITLE5=No Money Down
TTITLE6=Bright Light Big City
TTITLE7=Lipstick Traces
TTITLE8=Zydeco Cha-Cha
TTITLE9=Raining In My Heart
TTITLE10=Scrimin' In The Ground
TTITLE11=More Than You Know
TTITLE12=Pinetop's Fun
TTITLE13=Rocking Pneumonia
TTITLE14=Caravan
TTITLE15=Autumn Leaves
TTITLE16=Flame-Watcher
TTITLE17=Bug in Loves
EXTD=
EXTT0=
EXTT1=
EXTT2=
EXTT3=
EXTT4=
EXTT5=
EXTT6=
EXTT7=
EXTT8=
EXTT9=
EXTT10=
EXTT11=
EXTT12=
EXTT13=
EXTT14=
EXTT15=
EXTT16=
EXTT17=
PLAYORDER=
